# xmcd
# 
# Track frame offsets:
#     150
#     19639
#     42132
#     65174
#     87278
#     112128
#     130673
#     149586
#     175090
#     185420
#     206273
# 
# Disc length: 2861
# 
# Revision: 6
# Processed by: cddbd v1.5.2PL0 Copyright (c) Steve Scherf et al.
# Submitted via: fre:ac v1.0.31
# 
DISCID=990b2b0b
DTITLE=Loudness - 2・0・1・2
DYEAR=2012
DGENRE=Heavy Metal
TTITLE0=The Stronger
TTITLE1=2012 ～End of the Age
TTITLE2=Break New Ground
TTITLE3=Driving Force
TTITLE4=Behind The Scene
TTITLE5=Bang 'em Dead
TTITLE6=The Voice of Metal (Song For RJD)
TTITLE7=Who The Hell Cares
TTITLE8=Spirit From The East
TTITLE9=Memento Mori
TTITLE10=Out Of The Space
EXTD=YEAR: 2012
EXTT0=
EXTT1=
EXTT2=
EXTT3=
EXTT4=
EXTT5=
EXTT6=
EXTT7=
EXTT8=
EXTT9=
EXTT10=
PLAYORDER=
